<svg width="298" height="144" viewBox="0 0 298 144" fill="none" xmlns="http://www.w3.org/2000/svg">
<path d="M150.423 0.133255C150.423 0.549923 137.871 4.06659 135.157 4.39992C134.694 4.46659 133.692 4.61659 132.921 4.74992C132.165 4.88326 130.839 5.03325 129.991 5.08326C129.158 5.13326 128.403 5.23325 128.325 5.31659C127.909 5.76659 129.266 6.91659 131.194 7.73326C131.502 7.86659 131.764 8.04992 131.764 8.14992C131.764 8.23325 131.194 8.59992 130.5 8.96659C127.909 10.3166 124.856 13.5166 122.651 17.1666C121.972 18.3166 121.34 19.4166 121.263 19.6166C121.186 19.8333 121.016 20.1999 120.862 20.4499C120.708 20.6999 120.507 21.1333 120.415 21.4333C120.26 21.9333 120.26 21.9499 120.6 21.7499C120.785 21.6499 121.309 21.1833 121.772 20.7166C122.82 19.6166 123.869 18.8666 125.673 17.8833C125.843 17.7999 126.275 17.5666 126.629 17.3666C127.354 16.9499 128.063 16.8833 128.063 17.2166C128.063 17.3333 127.693 17.7333 127.261 18.0833C124.501 20.3499 122.435 23.1999 120.8 27.0833C120.291 28.2999 119.89 29.4666 119.89 29.7333C119.89 29.8833 119.752 30.2833 119.582 30.6166C119.412 30.9666 119.274 31.4166 119.274 31.6333C119.274 31.8499 119.196 32.1833 119.089 32.3833C118.903 32.7499 118.41 35.0499 118.24 36.1999C118.179 36.7166 118.21 36.8333 118.41 36.8333C118.549 36.8333 118.657 36.7333 118.657 36.6166C118.657 36.3333 120.846 33.8666 122.018 32.8333C125.318 29.9166 129.143 27.7999 134.386 26.0333C136.576 25.2833 140.338 24.5666 143.407 24.2999C145.535 24.1333 153.816 24.2333 154.556 24.4333C154.741 24.4999 154.895 24.6499 154.895 24.7666C154.895 25.0333 154.016 25.6666 153.662 25.6666C153.338 25.6666 149.514 27.7333 149.082 28.1499C148.881 28.3166 148.727 28.5499 148.727 28.6499C148.727 28.8666 148.557 28.8999 150.192 28.3999C152.736 27.6166 155.42 27.1833 158.735 26.9999C160.462 26.8999 161.927 26.7999 161.989 26.7499C162.22 26.5999 163.068 26.8666 163.068 27.0999C163.068 27.2166 162.59 27.5666 162.004 27.8999C159.799 29.1166 158.257 30.3666 158.55 30.6833C158.643 30.7833 159.383 30.5499 160.354 30.1666C161.264 29.7999 162.59 29.3333 163.269 29.1666C163.963 28.9833 164.903 28.7166 165.351 28.5833C165.798 28.4499 166.754 28.2999 167.463 28.2333C169.144 28.0833 169.221 27.7999 167.818 26.8333C166.445 25.9166 165.998 25.5166 165.998 25.2166C165.998 24.9999 166.152 24.9666 166.97 25.0499C167.818 25.1333 170.779 24.9666 172.136 24.7333C172.876 24.6166 172.752 24.0499 171.874 23.5499C171.118 23.1333 170.624 22.6999 170.624 22.4666C170.624 22.3999 171.442 22.3499 172.429 22.3833C174.079 22.4166 174.248 22.3833 174.295 22.1166C174.325 21.9333 174.217 21.6333 174.063 21.4499C173.678 20.9499 173.246 20.0833 173.246 19.7999C173.246 19.3499 173.57 19.1666 173.94 19.4333C174.156 19.5833 174.773 19.6833 175.682 19.7166C176.978 19.7499 177.101 19.7166 177.487 19.3333C177.703 19.0999 178.073 18.5499 178.273 18.0833C178.597 17.3833 178.659 17.0999 178.597 16.2499C178.551 15.6999 178.474 14.9999 178.412 14.6999C178.273 14.0499 178.474 13.9999 179.229 14.4999C179.861 14.9166 180.201 14.9166 180.694 14.4999C180.972 14.2666 181.126 13.9333 181.203 13.3999C181.296 12.7166 181.249 12.5666 180.725 11.7499C179.738 10.1999 176.916 7.43325 175.297 6.46659C174.958 6.24992 174.14 5.74992 173.462 5.33325C170.347 3.41659 167.139 2.28325 160.57 0.74992C159.907 0.599922 159.275 0.366589 159.151 0.233257C158.966 0.0499229 158.165 -8.01086e-05 154.679 -8.01086e-05C152.335 -8.01086e-05 150.423 0.0665894 150.423 0.133255ZM169.005 8.76659C170.856 9.56659 172.213 10.5166 171.935 10.7999C171.889 10.8499 171.766 10.7999 171.673 10.6999C171.565 10.5833 171.38 10.4999 171.241 10.4999C171.102 10.4999 170.732 10.3499 170.393 10.1666C170.054 9.98325 169.684 9.83325 169.545 9.83325C169.422 9.83325 169.067 9.68325 168.759 9.51659C168.45 9.33325 167.864 9.14992 167.448 9.08325C167.031 9.01659 166.476 8.86659 166.214 8.74992C165.952 8.63326 165.428 8.48326 165.058 8.41659C164.58 8.33325 164.456 8.24992 164.657 8.18325C165.073 8.01659 168.296 8.44992 169.005 8.76659ZM167.772 10.2333C169.607 10.8333 170.486 11.2166 172.413 12.2666C173.493 12.8499 174.526 13.3333 174.726 13.3333C174.911 13.3333 175.297 13.1333 175.559 12.8833C175.929 12.5499 176.083 12.4999 176.176 12.6499C176.361 12.9833 176.176 13.4666 175.621 14.0999C175.343 14.4333 174.973 14.9999 174.788 15.3833C174.295 16.4166 173.909 16.7833 173.045 17.0999C172.506 17.2999 172.012 17.3499 171.38 17.2666C170.223 17.1499 169.576 16.8499 168.805 16.0833C167.941 15.2499 167.54 14.2999 167.54 13.0666C167.54 12.2166 167.479 11.9999 167.155 11.6666C166.8 11.2999 165.196 10.4999 164.811 10.4999C164.41 10.4999 163.824 10.1666 163.932 9.98326C164.086 9.69992 166.661 9.88326 167.772 10.2333Z" fill="white"/>
<path d="M181.466 15.0666C181.019 15.7499 180.911 15.8166 180.233 15.8666L179.492 15.9166L179.4 16.9166C179.307 17.9999 178.752 19.3666 178.166 19.9499C177.966 20.1333 177.503 20.4666 177.148 20.6666C176.439 21.0499 175.745 21.0166 175.39 20.5666C175.19 20.2999 174.697 20.2499 174.558 20.5166C174.419 20.7499 175.144 21.8499 175.868 22.4833C176.208 22.7833 176.485 23.1333 176.485 23.2833C176.485 23.4999 176.331 23.5166 175.483 23.4166C174.666 23.3333 174.481 23.3499 174.481 23.5499C174.481 23.8499 174.974 24.3333 175.282 24.3333C175.606 24.3333 176.084 24.9333 175.976 25.2166C175.868 25.5333 175.19 25.6499 173.478 25.6833C172.723 25.6999 171.936 25.7666 171.736 25.8166L171.396 25.9166L171.782 26.3666C172.09 26.7333 172.337 26.8166 173.201 26.9166C173.771 26.9666 174.666 27.0833 175.175 27.1666C175.683 27.2499 176.902 27.4499 177.873 27.5833C178.845 27.7333 179.862 27.9166 180.109 27.9999C180.371 28.0666 180.849 28.1833 181.189 28.2499C181.528 28.2999 182.16 28.4833 182.576 28.6499C183.008 28.8333 183.964 29.1666 184.705 29.4166C186.771 30.1166 190.148 32.0333 191.551 33.3166C191.906 33.6499 192.446 34.1333 192.754 34.3999C193.772 35.2833 193.957 36.2499 193.356 37.5333C193.063 38.1499 193.063 39.3333 193.356 39.3333C193.618 39.3333 194.82 37.4333 195.345 36.1999C195.545 35.7333 195.777 35.2499 195.869 35.1333C196.039 34.8833 196.471 33.5999 196.702 32.5833C196.949 31.5499 196.794 28.3833 196.471 27.5833C195.252 24.6499 194.605 23.6166 192.831 21.7666C191.49 20.3833 190.888 19.8499 189.763 19.0833C189.624 18.9833 189.207 18.6833 188.822 18.4166C188.436 18.1499 187.064 17.3499 185.769 16.6333C184.458 15.9166 183.132 15.1166 182.808 14.8333C182.484 14.5666 182.16 14.3333 182.083 14.3333C182.006 14.3333 181.728 14.6666 181.466 15.0666Z" fill="white"/>
<path d="M170.315 27.1166C170.315 27.3999 170.994 27.9833 171.78 28.3499C172.752 28.8166 175.913 29.6666 176.669 29.6666C177.409 29.6666 177.563 29.9666 177.054 30.4166C176.515 30.8666 176.53 31.2499 177.085 31.4833C177.717 31.7833 178.535 32.7333 178.535 33.1999C178.535 33.4333 178.334 33.9333 178.118 34.3166C177.887 34.7166 177.733 35.0666 177.779 35.1333C177.825 35.1833 178.134 35.1333 178.458 35.0166C181.819 33.8166 184.903 33.5333 187.91 34.1499C188.882 34.3499 190.085 34.5999 190.578 34.6999C191.396 34.8666 191.503 34.8666 191.688 34.5833C191.935 34.2166 191.904 34.1499 190.979 33.6333C190.224 33.1999 189.591 32.7833 188.974 32.3333C188.759 32.1833 188.419 31.9833 188.203 31.9166C188.003 31.8499 187.078 31.3999 186.137 30.9166C185.196 30.4499 184.117 29.9333 183.731 29.7833C182.421 29.2666 179.182 28.4833 177.486 28.2499C174.464 27.8333 173.369 27.6499 172.336 27.3999C170.824 27.0166 170.315 26.9499 170.315 27.1166Z" fill="white"/>
<path d="M138.395 27.75C135.666 28.1167 134.34 28.4167 130.839 29.4667C129.421 29.8834 125.149 32.2167 123.9 33.2667C121.201 35.5 120.106 36.75 118.349 39.5834C117.254 41.3334 115.897 44.2834 115.634 45.4167C115.573 45.6834 115.403 46.2 115.249 46.5334C115.079 46.8834 114.956 47.3834 114.956 47.6667C114.956 47.95 114.848 48.4167 114.709 48.6834C114.463 49.2 114.524 49.7667 114.802 49.5834C114.879 49.5334 114.956 49.3 114.956 49.0667C114.956 48.8334 115.064 48.6167 115.187 48.5667C115.326 48.5 115.604 48.05 115.82 47.55C116.575 45.8167 119.305 42.5834 119.891 42.7167C120.199 42.7834 120.122 43.6667 119.736 44.5834C119.397 45.3667 119.012 46.4834 118.749 47.4167C118.657 47.7834 118.487 48.25 118.379 48.45C118.287 48.65 118.194 48.95 118.194 49.1334C118.194 49.3167 118.071 49.6334 117.901 49.85C117.747 50.0667 117.547 50.5167 117.439 50.85C117.346 51.1834 117.053 51.8 116.806 52.2334C116.544 52.6667 116.344 53.0667 116.344 53.1334C116.344 53.2 116.066 53.6167 115.727 54.0834C114.725 55.45 114.925 55.75 116.375 55.0167C117.547 54.4334 120.955 52.8834 121.818 52.5667C123.345 51.9834 126.876 49.9167 127.925 48.9667C129.174 47.8667 129.59 48.3 128.572 49.65C127.508 51.0334 125.149 53.4667 123.638 54.7C122.821 55.3667 122.127 56 122.096 56.1C121.972 56.4834 122.62 56.5 124.887 56.1667C128.634 55.6 132.289 54.4 135.512 52.6667C137.655 51.5 138.38 51 140.261 49.3834C141.742 48.1 142.019 48.2 141.109 49.7167C140.4 50.9167 139.151 52.4334 137.131 54.5334C136.19 55.5 135.465 56.3834 135.527 56.4667C135.697 56.7667 136.977 56.3334 140.554 54.7667C142.528 53.9 146.167 51.95 146.645 51.5167C146.815 51.35 147.339 50.95 147.802 50.6334C148.265 50.3 148.943 49.6834 149.313 49.2667C149.683 48.8334 150.053 48.5334 150.131 48.5834C150.346 48.7334 150.3 49.4834 150.038 49.9667C149.776 50.4834 149.421 51.55 149.097 52.7667C148.974 53.25 148.774 53.85 148.65 54.1C148.527 54.3667 148.419 54.6834 148.419 54.7834C148.419 55 147.586 56.75 147.324 57.1C147.154 57.3334 147.309 57.8334 147.555 57.8334C147.648 57.8334 148.002 57.6834 148.342 57.5C148.681 57.3167 149.56 56.8834 150.285 56.5334C153.97 54.7167 156.977 51.5334 158.196 48.1167C158.319 47.7834 158.535 47.5 158.658 47.5C158.905 47.5 159.213 48.3167 159.213 48.9834C159.213 49.8 160.077 51.4334 161.203 52.7C162.004 53.6167 162.652 54.1667 163.716 54.8C165.49 55.85 166.106 56.1167 166.338 55.8667C166.523 55.6667 166.415 55.3667 165.844 54.4167C165.459 53.8 164.611 51.8667 164.611 51.6167C164.595 51.5 164.487 51.1167 164.364 50.75C163.67 48.7667 163.315 46.3334 163.732 46.3334C163.917 46.3334 164.503 47.25 165.042 48.4334C165.798 50.0667 168.419 53.35 170.316 55.0334C171.211 55.8334 174.418 58.2167 174.834 58.3834C175.374 58.6 175.251 58.1 174.495 56.9167C174.063 56.2334 173.709 55.6334 173.709 55.6C173.709 55.55 173.508 55.1334 173.246 54.6834C172.629 53.5334 172.043 51.9 171.935 51C171.874 50.5834 171.812 50.0834 171.766 49.8667L171.689 49.4834L172.012 49.8334C172.182 50.0167 172.398 50.1667 172.475 50.1667C172.568 50.1667 172.629 50.2834 172.629 50.4167C172.629 50.95 175.143 53.5 176.855 54.75C178.52 55.9334 182.375 58.1667 182.761 58.1667C183.27 58.1667 182.776 57.4834 180.432 54.9667C177.564 51.8834 175.035 48.7834 173.971 47.05C173.57 46.4 173.246 45.8167 173.246 45.7334C173.246 45.6667 173.138 45.4834 172.999 45.3167C172.444 44.65 172.012 42.8334 172.012 41.1667C172.012 39.1334 172.367 38.25 173.601 37.1667C174.464 36.4167 174.696 36 174.233 36C174.11 36 173.416 36.3 172.706 36.6667C171.134 37.4834 169.838 38.9167 169.545 40.15C169.376 40.8667 169.36 40.9 169.144 40.6C168.605 39.8 169.036 38.1667 170.162 36.7834C170.841 35.9667 172.753 34.8167 173.863 34.5834C174.634 34.4167 175.205 34 174.927 33.8167C174.434 33.4834 171.735 33.85 171.18 34.3167C171.087 34.4 170.825 34.5 170.594 34.5667C170.378 34.6167 169.869 34.9334 169.484 35.25C168.373 36.1667 168.08 35.9667 168.682 34.7C169.514 32.9334 171.18 31.45 172.861 31C174.141 30.65 174.156 30.3 172.922 30.0167C169.884 29.3 164.518 30.9 160.216 33.8C159.09 34.55 156.962 36.4667 155.929 37.6667C155.358 38.3 154.834 38.8334 154.741 38.8334C154.325 38.8334 154.926 37.1667 156.083 35.1334C156.792 33.8834 156.407 33.65 155.235 34.6C154.834 34.9334 153.431 36.0334 152.12 37.05C149.807 38.85 146.877 41.4 146.877 41.6334C146.861 41.7 146.584 42.0834 146.245 42.5C145.767 43.0667 145.597 43.1834 145.489 43C145.412 42.85 145.427 42.6 145.566 42.3334C145.674 42.1 145.998 41.4 146.275 40.7834C147.74 37.5834 151.518 33.3834 154.849 31.2667C155.852 30.6334 156.145 30.2167 155.713 30.05C155.42 29.9334 152.197 30.7667 150.115 31.5167C147.339 32.5 145.335 33.6167 143.099 35.4167C141.572 36.65 139.814 38.5167 139.398 39.3334C139.151 39.8167 138.395 40.4 138.226 40.2167C138.056 40.0334 138.55 37.75 139.012 36.5834C139.382 35.65 140.107 34.4834 140.909 33.55C141.587 32.75 141.587 32.3334 140.909 32.4667C140.678 32.5 140.4 32.6 140.323 32.6834C140.23 32.75 139.506 33.0667 138.704 33.3834C137.146 34 134.016 35.6834 132.875 36.5334C132.489 36.8167 131.703 37.4834 131.132 38.0334C129.806 39.2667 129.529 39.3167 130.007 38.2834C130.932 36.3 133.584 33.0167 135.604 31.35C137.038 30.1667 138.21 29.4334 139.937 28.65C142.143 27.65 141.587 27.3334 138.395 27.75Z" fill="white"/>
<path d="M0.0107444 28.4834C-0.0355176 28.55 0.0724272 28.9167 0.242055 29.2667C0.411682 29.6167 0.720096 30.4 0.935985 31C1.75328 33.3334 3.94302 37.8 5.51593 40.3334C7.42809 43.4167 8.97016 45.4333 11.1291 47.6667C14.0281 50.6833 16.9427 52.8667 20.7361 54.8667C23.2651 56.2 29.0942 58.5 29.9731 58.5C30.0965 58.5 30.7596 58.65 31.4535 58.8167C37.8839 60.5167 44.9466 60.9667 59.6734 60.6667C64.2533 60.5667 69.5426 60.4167 71.4393 60.3334C79.3347 59.95 89.4044 60.2833 94.6012 61.1C97.1765 61.5 100.245 62.1 100.476 62.2667C100.538 62.3 101.201 62.4833 101.957 62.65C103.838 63.1 105.951 63.8167 107.2 64.4333C107.462 64.55 107.755 64.6667 107.863 64.6667C108.079 64.6667 108.557 64.9 110.639 65.95C112.135 66.7167 112.196 66.75 113.06 67.35C113.846 67.9 113.384 68.25 112.52 67.7667C111.949 67.4667 110.716 67.0167 109.713 66.7333C109.251 66.6167 108.449 66.3833 107.94 66.25C105.118 65.4167 102.79 64.8833 101.109 64.6667C100.399 64.5833 99.1195 64.4 98.2559 64.2667C90.9619 63.1 86.8292 62.9333 64.9935 62.9167C52.4719 62.9 44.669 62.8333 41.8779 62.7C39.5494 62.5833 37.6064 62.4667 37.5601 62.4333C37.5138 62.4 36.5732 62.2833 35.4629 62.1667C33.4428 61.9833 27.2745 61.0667 27.074 60.9333C27.0124 60.8833 26.3801 60.7833 25.6708 60.6667C24.2058 60.4667 22.4324 60.0333 19.888 59.3C18.9628 59.0167 17.9142 58.7333 17.5749 58.6333C16.2641 58.3167 11.823 56.6 11.5608 56.3167C11.4837 56.2333 11.2678 56.1667 11.0674 56.1667C10.651 56.1667 10.5739 56.7167 10.944 57.2667C11.052 57.4667 11.3758 58.0667 11.6534 58.6C13.5655 62.3833 17.2356 67.1667 20.659 70.3167C21.9081 71.4833 23.7432 72.9667 24.4679 73.4167C24.6067 73.5 25.3623 73.9833 26.118 74.45C26.889 74.9333 27.5675 75.3333 27.6292 75.3333C27.6754 75.3333 28.2152 75.6 28.8166 75.9167C30.5129 76.8 31.8545 77.2833 35.0774 78.15C38.7012 79.1167 39.9195 79.25 45.5634 79.25C51.2845 79.25 52.1326 79.1667 58.8561 78C59.8584 77.8333 60.722 77.65 60.7991 77.6C60.8608 77.5667 61.5084 77.45 62.2178 77.35C62.9425 77.25 63.9757 77.05 64.5309 76.9167C65.086 76.7833 66.1809 76.5333 66.9673 76.35C67.7384 76.1667 68.9875 75.8667 69.7431 75.6833C70.4833 75.5 71.3314 75.3 71.6244 75.25C71.9174 75.2 72.6113 75.05 73.1665 74.9167C75.8959 74.2667 77.0679 74 78.4095 73.6833C79.2114 73.4833 80.846 73.1333 82.0333 72.9C83.2207 72.6667 84.6086 72.3667 85.1329 72.2333C85.6418 72.1 86.1969 72 86.3511 72C86.5208 72 87.4152 71.85 88.3558 71.6667C96.1433 70.1667 106.059 70.2 111.256 71.75C111.718 71.8833 112.227 72 112.381 72C112.551 72 112.906 72.15 113.168 72.3167C113.43 72.4833 113.877 72.6833 114.155 72.75C114.417 72.8 114.648 72.9333 114.648 73.0167C114.648 73.2167 113.214 73.2167 112.505 73C111.363 72.65 107.2 72.3 103.468 72.2167C99.8597 72.1333 98.8882 72.1833 93.7531 72.6667C91.4554 72.8833 88.5255 73.3 86.6596 73.6667C85.8114 73.8333 84.8399 74.0167 84.5007 74.0833C84.1614 74.1333 83.4366 74.2833 82.8815 74.4167C82.3263 74.5333 81.1235 74.8 80.1829 75C78.5174 75.35 76.8983 75.7167 74.4772 76.3333C72.7501 76.7667 71.7632 77 70.1594 77.35C69.4038 77.5167 68.1547 77.8 67.3837 78C65.0706 78.5833 63.2818 79.0167 62.0636 79.25C60.9687 79.4667 60.321 79.6167 57.2832 80.3333C56.5584 80.5167 55.664 80.7 55.2785 80.75C54.893 80.8167 54.3841 80.9167 54.1219 81C53.8752 81.0833 53.0425 81.2333 52.2714 81.3333C51.5158 81.4333 50.3593 81.6167 49.727 81.75C47.5373 82.2 44.2527 82.6667 43.312 82.6667C41.6312 82.6667 41.6774 83.3 43.4045 84.0833C49.6191 86.8833 50.2051 87.1167 54.7387 88.5C56.6509 89.0833 57.9 89.35 60.2902 89.6667C63.0196 90.0333 67.5842 90.1167 69.5426 89.8333C70.1749 89.75 71.2389 89.5833 71.8865 89.5C74.03 89.1833 78.0086 88.0667 81.1081 86.8833C85.4722 85.2333 86.3049 84.9167 88.4329 84C88.8956 83.8 89.5895 83.5333 89.975 83.4167C90.3605 83.2833 91.2549 82.95 91.9797 82.6667C92.7045 82.3833 93.5063 82.0833 93.7531 82C94.0152 81.9167 94.5241 81.7333 94.9096 81.6C96.8372 80.8667 101.587 79.5667 104.316 79.0167C109.035 78.0833 113.8 77.5167 114.54 77.8167C114.864 77.95 114.864 77.95 114.478 78.2167C114.278 78.35 113.831 78.5167 113.492 78.5833C112.088 78.8167 107.2 80.0167 105.01 80.6667C104.424 80.8333 103.622 81.0667 103.237 81.1833C102.851 81.3 101.541 81.7167 100.307 82.1333C99.0732 82.5333 97.6237 83.0167 97.0685 83.2C94.3391 84.1 85.1329 87.5833 82.0333 88.8833C81.2777 89.2 80.1983 89.6333 79.6431 89.8333C79.088 90.05 78.0548 90.4833 77.33 90.8C76.6053 91.1167 75.7417 91.4833 75.4025 91.6C74.3693 91.9667 73.4132 92.3333 73.0894 92.5C72.3646 92.85 69.5889 93.9833 69.1725 94.0833C68.2627 94.3 68.2473 94.8167 69.1571 95.05C69.373 95.1167 70.8996 95.5333 72.5496 96.0167L75.5567 96.8667L79.1805 96.8833L82.8044 96.9L85.4259 96.1833C86.8754 95.7833 88.3404 95.3167 88.6951 95.15C89.0498 94.9833 89.4353 94.8333 89.5432 94.8333C89.6512 94.8333 89.9596 94.6833 90.2063 94.5C90.4685 94.3167 90.7615 94.1667 90.8694 94.1667C91.2703 94.1667 95.7886 91.8 97.9629 90.4667C98.6723 90.0167 99.3045 89.6667 99.3508 89.6667C99.4125 89.6667 99.8442 89.4167 100.322 89.1C100.785 88.8 101.695 88.25 102.327 87.8833C102.959 87.5167 103.746 87.0333 104.085 86.8333C104.671 86.4667 106.999 85.15 108.788 84.1667C112.027 82.3833 116.992 80.3 117.27 80.6C117.47 80.8167 117.285 81.0333 116.653 81.3833C116.36 81.5333 115.835 81.85 115.496 82.0833C115.157 82.3167 114.771 82.55 114.648 82.6C114.525 82.65 114.309 82.75 114.185 82.8333C114.062 82.9167 113.43 83.2833 112.798 83.6333C109.297 85.6 100.399 91.1167 97.9938 92.8167C97.5311 93.1333 96.8989 93.55 96.6059 93.7167C96.097 94.0167 95.4493 94.4667 93.1362 96.1C92.6274 96.45 92.1493 96.7833 92.0568 96.8333C91.9797 96.8833 91.2549 97.3833 90.453 97.9667C89.6512 98.5333 88.9418 99 88.8801 99C88.6951 99 88.5409 99.6833 88.6951 99.8333C88.7568 99.9167 90.1755 100.067 91.8255 100.167C95.4956 100.417 98.3484 100.217 100.183 99.6C102.589 98.7833 105.457 96.9667 108.094 94.55C108.526 94.1667 109.837 92.9667 111.024 91.8833C115.743 87.5667 119.259 84.6667 119.737 84.6667C120.138 84.6667 119.752 85.2 117.933 87.1333C113.43 91.9167 107.138 97.7167 103.422 100.5C102.558 101.167 102.019 101.683 102.049 101.833C102.08 102.05 102.558 102.083 105.01 102.133C107.632 102.167 108.033 102.133 109.081 101.8C110.454 101.367 112.582 100.217 113.569 99.3667C115.388 97.8 118.519 93.7667 119.829 91.3167C119.922 91.15 120.107 90.8667 120.246 90.7C120.4 90.5333 120.508 90.3 120.508 90.2C120.508 90.1 120.678 89.8833 120.893 89.7333C121.109 89.5833 121.279 89.3167 121.279 89.15C121.279 88.9833 121.356 88.8 121.433 88.75C121.526 88.7 121.587 88.8333 121.587 89.0667C121.587 89.3 121.526 89.5167 121.449 89.5833C121.372 89.6333 121.264 89.8833 121.202 90.15C121.156 90.4167 120.971 90.7667 120.801 90.9333C120.647 91.0833 120.508 91.35 120.508 91.5C120.508 91.6667 120.4 91.8833 120.277 92C120.153 92.1167 120.045 92.3 120.045 92.4C120.045 92.5167 119.891 92.8333 119.691 93.1167C119.29 93.7167 119.166 93.9167 118.349 95.25C117.038 97.3833 113.923 101.75 113.121 102.567C112.859 102.85 112.643 103.15 112.643 103.267C112.643 104.183 114.448 103.75 117.27 102.167C118.442 101.5 121.572 98.15 122.944 96.0833C124.718 93.4167 125.473 92.1833 126.152 90.8167C127.093 88.9667 127.293 88.8667 128.419 89.8C130.269 91.3667 130.408 91.5667 131.071 94C131.333 94.95 131.457 95.35 132.151 97.4167C132.706 99.0833 132.937 99.8833 133.4 101.733C133.538 102.283 133.708 102.85 133.785 102.983C133.924 103.233 134.664 105.567 135.636 108.833C136.067 110.267 137.98 116.367 138.381 117.583C138.473 117.85 138.859 119.133 139.229 120.417C140.108 123.35 140.37 124.2 140.724 125.25C140.894 125.717 141.017 126.2 141.017 126.333C141.033 126.467 141.156 126.883 141.326 127.25C141.495 127.617 141.619 128.033 141.634 128.183C141.634 128.5 142.282 130.683 142.606 131.517C142.914 132.267 143.485 134.217 143.485 134.5C143.485 134.617 143.608 135.017 143.778 135.4C143.932 135.783 144.21 136.65 144.41 137.333C144.595 138.017 144.811 138.8 144.903 139.083C145.474 140.883 145.674 141.433 145.798 141.567C145.89 141.667 145.952 141.867 145.952 142.033C145.952 142.183 146.029 142.7 146.122 143.167L146.291 144H147.972H149.653V143.583C149.653 143.333 149.761 142.917 149.915 142.617C150.054 142.317 150.224 141.85 150.285 141.583C150.517 140.65 150.902 139.417 151.195 138.75C151.349 138.383 151.689 137.4 151.935 136.583C152.197 135.75 152.552 134.667 152.737 134.167C152.922 133.667 153.169 132.917 153.292 132.5C153.601 131.383 154.002 130.117 154.156 129.783C154.233 129.617 154.495 128.8 154.757 127.95C155.019 127.1 155.328 126.217 155.436 125.983C155.559 125.75 155.837 124.933 156.068 124.15C156.577 122.433 156.885 121.517 157.579 119.583C157.872 118.75 158.165 117.85 158.227 117.583C158.289 117.3 158.427 116.9 158.535 116.667C158.659 116.433 158.983 115.467 159.276 114.5C159.569 113.533 159.923 112.45 160.062 112.083C160.34 111.417 161.049 109.333 161.45 108.083C161.573 107.717 161.959 106.55 162.313 105.5C162.668 104.45 163.223 102.75 163.547 101.75C163.855 100.733 164.226 99.6833 164.364 99.4167C164.503 99.1333 164.611 98.8 164.611 98.6667C164.611 98.5333 164.827 97.8167 165.089 97.0833C165.351 96.35 165.798 95 166.107 94.0833C166.4 93.1667 166.724 92.3167 166.832 92.1833C167.263 91.6 170.085 89.3333 170.378 89.3333C170.61 89.3333 170.826 89.5833 171.165 90.2833C171.427 90.8167 171.843 91.5833 172.09 92C172.352 92.4167 172.63 92.9 172.707 93.05C173.015 93.6 174.11 95.2833 174.989 96.55C178.027 100.883 181.774 103.817 184.319 103.833C184.889 103.833 184.966 103.783 184.966 103.45C184.966 103.233 184.812 102.917 184.643 102.733C184.257 102.367 181.512 98.7167 180.957 97.8333C180.757 97.5167 180.417 97.0167 180.201 96.7333C179.986 96.45 179.6 95.85 179.338 95.4167C178.844 94.55 178.844 94.55 178.027 93.1667C176.963 91.3833 176.331 90.0833 176.331 89.75C176.331 89.3 176.639 89.3167 176.809 89.7833C176.901 90.0333 177.086 90.3833 177.21 90.55C177.349 90.7 177.534 90.9833 177.626 91.15C178.027 91.9 180.171 95.1 180.864 95.9667C183.07 98.7167 185.522 100.8 187.48 101.6C189.623 102.483 194.666 102.783 195.545 102.1C195.776 101.9 195.699 101.8 194.743 101.033C191.751 98.65 191.119 98.1333 188.806 96.0833C185.013 92.75 179.184 86.9 178.027 85.2667C177.811 84.9667 177.827 84.95 178.258 85.0667C178.875 85.2333 182.792 88.4833 186.431 91.8333C190.718 95.7833 192.615 97.3167 194.604 98.4167C196.64 99.55 197.334 99.8 199.462 100.183C200.927 100.467 201.698 100.5 203.857 100.433C206.494 100.333 208.19 100.217 208.838 100.067C209.624 99.9 209.223 99.5167 205.322 96.75C205.183 96.6667 204.844 96.4333 204.566 96.25C204.289 96.0667 203.502 95.5167 202.824 95.05C202.145 94.5667 201.297 94 200.958 93.8C200.603 93.5833 200.002 93.1833 199.616 92.9167C199.231 92.6333 198.336 92.0333 197.611 91.6C196.887 91.15 196.193 90.7 196.069 90.5833C195.946 90.4667 195.452 90.15 194.99 89.8833C194.111 89.3667 191.397 87.7 189.901 86.75C189.438 86.45 188.436 85.85 187.665 85.4167C186.909 84.9833 185.83 84.35 185.275 84.0167C184.72 83.6833 183.825 83.1667 183.27 82.85C182.067 82.2 181.774 82.0167 181.188 81.5667C180.926 81.3833 180.602 81.1667 180.464 81.1167C180.309 81.05 180.186 80.9333 180.186 80.8333C180.186 80.5833 180.972 80.6333 181.42 80.9167C181.636 81.05 181.929 81.15 182.083 81.1667C182.684 81.1667 189.762 84.6667 192.214 86.1667C192.769 86.5167 193.71 87.0667 194.296 87.4167C194.897 87.75 196.069 88.45 196.917 88.9667C200.402 91.0333 201.189 91.4833 203.641 92.8C205.06 93.55 206.309 94.1667 206.417 94.1667C206.54 94.1667 206.848 94.3167 207.095 94.5C207.357 94.6833 207.65 94.8333 207.758 94.8333C207.882 94.8333 208.19 94.95 208.452 95.0833C209.084 95.3833 211.305 96.1667 211.582 96.1667C211.69 96.1667 212.23 96.3167 212.754 96.4833C215.037 97.25 219.216 97.45 222.053 96.9333C224.227 96.55 228.761 95.2333 229.054 94.9167C229.285 94.6667 229.27 94.6333 229.008 94.4C228.838 94.2667 228.592 94.1667 228.453 94.1667C228.16 94.1667 226.571 93.55 223.333 92.15C222.886 91.9667 222.269 91.7333 221.976 91.6333C221.683 91.55 221.236 91.3667 220.974 91.25C220.496 91.0167 218.907 90.35 217.581 89.8333C217.165 89.6667 216.085 89.2333 215.191 88.85C214.297 88.4833 213.047 88 212.415 87.7667C211.783 87.5333 210.781 87.15 210.179 86.9C208.56 86.2333 201.682 83.6833 200.541 83.35C199.986 83.1833 198.429 82.6667 197.072 82.2167C195.715 81.7667 194.296 81.3 193.91 81.2C193.525 81.0833 192.137 80.7 190.826 80.3167C189.516 79.9333 188.02 79.55 187.511 79.4667C187.002 79.3833 186.061 79.1667 185.429 79C184.797 78.8333 183.964 78.65 183.579 78.5833C181.805 78.2833 182.345 77.9 184.504 77.9333C187.218 77.9667 194.774 79.3 198.305 80.3667C198.907 80.55 199.878 80.8333 200.464 81.0167C202.577 81.65 208.437 83.8167 210.565 84.7333C211.12 84.9833 211.875 85.2833 212.261 85.4167C212.647 85.5333 213.402 85.8333 213.957 86.05C214.512 86.2667 215.453 86.65 216.07 86.9C217.458 87.45 220.758 88.5 222.901 89.0667C224.382 89.45 225.106 89.5833 228.221 90C229.609 90.2 234.991 90.2 236.394 90C239.602 89.5833 241.576 89.1667 243.642 88.5C244.151 88.3333 245.092 88.0333 245.724 87.8333C247.158 87.3833 248.608 86.8167 250.504 85.9833C251.306 85.6167 252.016 85.3333 252.077 85.3333C252.139 85.3333 252.679 85.0833 253.28 84.7667C253.881 84.45 254.606 84.1 254.884 84C255.408 83.8167 255.716 83.3833 255.485 83.15C255.424 83.0833 254.637 82.9333 253.743 82.8333C252.108 82.65 249.718 82.2667 246.495 81.6667C245.523 81.5 244.274 81.2667 243.719 81.1833C242.424 80.95 240.836 80.6167 238.63 80.1C237.659 79.8667 236.441 79.6 235.932 79.5C234.899 79.2833 233.048 78.85 230.874 78.3333C228.391 77.7333 226.88 77.3667 225.291 77C223.842 76.65 223.256 76.5167 219.971 75.6833C219.247 75.5 218.321 75.3167 217.89 75.25C217.473 75.1833 216.702 75.0333 216.193 74.9167C215.299 74.7 213.865 74.4 210.179 73.6833C209.254 73.5 207.727 73.2667 206.787 73.1667C205.861 73.0667 204.982 72.95 204.859 72.9167C204.736 72.8833 202.854 72.7167 200.695 72.5667C195.391 72.2 189.3 72.4167 185.938 73.1C184.55 73.3833 183.409 73.3667 183.316 73.05C183.27 72.95 183.579 72.7833 184.057 72.6833C184.504 72.5667 184.951 72.4167 185.044 72.3333C185.259 72.1333 187.773 71.5667 190.364 71.1333C192.106 70.85 193.186 70.7833 196.995 70.7667C202.916 70.75 205.522 71.05 214.497 72.8167C216.918 73.3 217.89 73.5167 221.282 74.3333C221.961 74.5 223.241 74.7833 224.135 74.9833C226.895 75.5833 228.391 75.95 232.231 76.9C232.832 77.05 233.804 77.2333 234.39 77.3167C234.991 77.4167 235.993 77.6 236.626 77.7333C240.851 78.6333 244.444 79.15 248.037 79.35C251.753 79.5667 257.567 79.4167 259.371 79.0667C260.05 78.9333 261.021 78.75 261.53 78.65C262.039 78.5667 262.764 78.3667 263.149 78.25C263.535 78.1167 264.475 77.8167 265.231 77.5667C266.866 77.0667 267.375 76.85 269.318 75.8833C270.983 75.05 271.924 74.5333 272.232 74.2667C272.448 74.0833 272.695 73.9167 273.497 73.4333C273.79 73.2667 274.437 72.7833 274.946 72.3667C279.557 68.5833 283.289 64 286.172 58.6C287.421 56.2333 287.344 55.9667 285.679 56.7333C283.998 57.5 282.255 58.1833 280.852 58.6C277.413 59.6333 274.854 60.3334 273.851 60.5C273.265 60.6 272.124 60.8334 271.322 61C267.097 61.9167 261.946 62.5333 255.902 62.85C253.989 62.95 242.856 63.1 231.151 63.1667C219.108 63.25 209.1 63.3667 208.097 63.4667C203.502 63.9167 200.85 64.2 200.079 64.3333C199.616 64.4167 198.614 64.5667 197.843 64.6667C194.774 65.0333 190.225 66.15 187.125 67.2833C185.398 67.9 184.35 68.1333 184.35 67.8833C184.35 67.7 185.768 66.6667 186.015 66.6667C186.108 66.6667 186.647 66.4 187.233 66.0667C188.39 65.4167 188.791 65.2333 191.058 64.4C191.906 64.0833 192.708 63.7667 192.846 63.6833C193.34 63.3833 196.501 62.55 199.539 61.9167C203.826 61.0333 207.188 60.6667 212.616 60.5C217.89 60.35 230.72 60.5167 237.32 60.8334C245.184 61.2 255.763 60.9 260.605 60.15C265.663 59.3667 269.657 58.2833 273.944 56.5C274.329 56.35 274.776 56.1667 274.946 56.1C275.116 56.0333 276.195 55.4833 277.336 54.8667C283.258 51.75 288.177 47.0333 292.017 40.8C293.836 37.85 293.883 37.75 295.147 35C296.381 32.3 296.612 31.7667 297.167 30.2667C297.414 29.65 297.692 29.1 297.8 29.05C297.907 29 298 28.8167 298 28.6334C298 28.3334 297.923 28.3 297.445 28.3834C297.136 28.45 296.52 28.6334 296.088 28.8167C293.466 29.9 283.736 32.7334 278.801 33.85C277.953 34.05 276.673 34.3334 275.948 34.5C273.512 35.0834 268.454 36.1334 264.074 37C263.103 37.1833 261.761 37.45 261.098 37.5834C260.451 37.7167 259.71 37.8334 259.479 37.8334C259.248 37.8334 258.307 37.9834 257.367 38.15C254.036 38.8 251.954 39.1667 250.751 39.3334C250.088 39.4167 249.502 39.5333 249.44 39.5667C249.379 39.6167 248.608 39.7334 247.744 39.8167C246.865 39.9167 245.585 40.1167 244.891 40.25C244.213 40.3834 242.701 40.65 241.56 40.8334C240.419 41.0333 238.677 41.3334 237.705 41.5C236.734 41.6833 235.485 41.8667 234.929 41.9167C234.374 41.9834 233.403 42.1334 232.771 42.25C232.138 42.3834 230.75 42.65 229.686 42.8334C228.622 43.0333 227.065 43.3334 226.217 43.5C225.369 43.6667 224.258 43.8667 223.749 43.9167C223.241 43.9834 222.577 44.1 222.269 44.1833C221.976 44.2667 221.174 44.4333 220.496 44.5667C219.833 44.7 218.445 45 217.427 45.25C216.409 45.4834 215.129 45.7667 214.574 45.8667C214.019 45.95 212.77 46.2667 211.798 46.5333C210.827 46.8 209.639 47.1333 209.177 47.25C206.401 47.9667 203.302 48.9 201.698 49.5C201.281 49.6667 200.264 50 199.462 50.25C198.66 50.5 197.935 50.7667 197.843 50.8334C197.766 50.8833 197.164 51.15 196.532 51.4167C195.9 51.6667 195.082 52.0167 194.728 52.1833C194.373 52.3667 194.003 52.5 193.926 52.5C193.772 52.5 190.256 54.25 189.361 54.7667C189.115 54.9167 188.313 55.3833 187.588 55.8C186.863 56.2167 185.768 56.9333 185.136 57.3667C184.473 57.8167 183.794 58.1667 183.563 58.1667C183.239 58.1667 183.116 58.2833 182.993 58.65C182.9 58.9167 182.669 59.2333 182.468 59.35C181.574 59.8667 178.999 62.25 177.117 64.3167C175.282 66.3333 174.912 66.6667 173.648 67.35C170.98 68.8167 169.931 69.4333 169.083 70.0167C168.62 70.35 167.957 70.8 167.618 71.0167C165.937 72.1 162.128 75.4167 160.139 77.5167L158.505 79.25L158.073 80.75C157.841 81.5667 157.533 82.5167 157.41 82.8333C157.271 83.15 157.117 83.6833 157.04 84C156.978 84.3167 156.824 84.9167 156.7 85.3333C156.561 85.75 156.315 86.65 156.114 87.3333C155.929 88.0167 155.667 88.9167 155.513 89.3333C155.359 89.75 155.097 90.65 154.896 91.3333C154.711 92.0167 154.433 92.95 154.279 93.4167C154.017 94.25 153.508 96.05 153.231 97.1667C153.138 97.4833 152.984 98.0167 152.876 98.3333C152.059 100.817 151.504 102.733 151.504 103.083C151.504 103.267 151.365 103.633 151.195 103.917C151.025 104.183 150.887 104.567 150.887 104.733C150.887 105.117 150.347 107.083 149.961 108.167C149.591 109.2 149.082 110.967 148.944 111.667C148.897 111.983 148.712 112.467 148.543 112.717C148.296 113.083 148.188 113.133 148.018 112.983C147.895 112.883 147.803 112.567 147.803 112.317C147.803 112.05 147.664 111.4 147.494 110.883C147.325 110.35 147.186 109.75 147.186 109.533C147.186 109.333 147.047 108.867 146.877 108.5C146.708 108.133 146.569 107.7 146.569 107.533C146.569 107.367 146.43 106.783 146.26 106.25C146.091 105.717 145.952 105.083 145.952 104.85C145.937 104.617 145.813 104.117 145.644 103.75C145.474 103.383 145.351 102.917 145.335 102.7C145.335 102.5 145.196 102.05 145.027 101.717C144.857 101.367 144.718 100.883 144.718 100.633C144.718 100.383 144.58 99.7833 144.41 99.3C144.24 98.8167 144.102 98.25 144.102 98.0333C144.102 97.8333 143.978 97.3833 143.809 97.0333C143.654 96.7 143.469 96.05 143.423 95.6167C143.361 95.1833 143.207 94.5667 143.084 94.25C142.96 93.9333 142.868 93.5 142.868 93.3C142.868 93.0833 142.729 92.6167 142.575 92.25C142.405 91.8833 142.128 90.95 141.943 90.1667C141.758 89.3833 141.511 88.4167 141.388 88C141.249 87.5833 141.095 86.9833 141.033 86.6667C140.971 86.35 140.817 85.75 140.678 85.3333C140.539 84.9167 140.277 83.95 140.092 83.1667C139.907 82.3833 139.63 81.4333 139.46 81.0333C139.306 80.65 139.167 80.1833 139.167 80C139.167 79.8167 139.059 79.3833 138.92 79.0167C138.504 77.9 134.525 74.1 131.364 71.8167C128.681 69.8833 128.08 69.5 125.335 67.9833C122.651 66.5 122.621 66.4667 121.356 64.9667C118.395 61.4833 115.157 58.75 110.438 55.8167C109.436 55.1833 108.572 54.6667 108.557 54.6667C108.526 54.6667 107.632 54.2167 106.568 53.6667C105.504 53.1167 104.378 52.5667 104.054 52.4333C103.73 52.3 103.098 52.05 102.666 51.85C102.219 51.65 101.479 51.35 101.047 51.15C100.137 50.7667 96.4517 49.4167 95.3722 49.0834C94.9867 48.9667 94.4778 48.7833 94.2157 48.7C93.969 48.6 93.1671 48.35 92.4423 48.1667C91.7175 47.9667 90.6844 47.6667 90.1292 47.5C89.5741 47.3334 88.5717 47.05 87.8932 46.8667C87.2147 46.6833 86.3203 46.45 85.8885 46.3334C85.4722 46.2167 84.6703 46.0333 84.1151 45.9167C83.56 45.8 82.5885 45.5834 81.9562 45.4333C78.9492 44.7 76.0347 44.0834 74.8627 43.9167C74.2459 43.8334 72.5496 43.5167 69.9281 42.9834C68.1393 42.6334 65.3173 42.1334 63.7598 41.9167C62.0944 41.6833 60.028 41.3334 57.7458 40.9C57.021 40.7667 55.957 40.5834 55.3556 40.5C54.7696 40.4167 53.5514 40.2334 52.657 40.0834C51.7626 39.95 50.5597 39.75 49.9583 39.65C49.3723 39.55 48.0153 39.3334 46.9513 39.15C45.8873 38.9667 44.3298 38.7167 43.4816 38.5667C42.6335 38.4333 41.6928 38.25 41.3999 38.1667C41.1069 38.0834 40.1816 37.9333 39.3335 37.8334C38.5008 37.7334 37.7606 37.6334 37.6989 37.5834C37.6372 37.55 37.0821 37.4333 36.4498 37.3334C35.8176 37.2334 34.5839 37 33.6895 36.8167C32.7951 36.6334 31.3456 36.35 30.4512 36.1667C29.5568 35.9834 28.0301 35.6833 27.0586 35.5C26.0871 35.3 24.2058 34.9 22.895 34.5834C21.5843 34.2667 19.6567 33.8167 18.6081 33.5834C16.2796 33.05 9.43278 31.2 7.55146 30.5834C6.79584 30.3334 5.2692 29.85 4.15891 29.5C3.06404 29.15 1.84581 28.75 1.47571 28.6C0.735516 28.3 0.13411 28.25 0.0107444 28.4834ZM176.177 88.7667C176.177 88.9 176.115 89 176.022 89C175.945 89 175.868 88.85 175.868 88.65C175.868 88.4667 175.945 88.3667 176.022 88.4167C176.115 88.4667 176.177 88.6333 176.177 88.7667Z" fill="white"/>
</svg>
